<svg xmlns="http://www.w3.org/2000/svg" shape-rendering="geometricPrecision" text-rendering="geometricPrecision" image-rendering="optimizeQuality" fill="white"  fill-rule="evenodd" clip-rule="evenodd" viewBox="0 0 512 314.158"><path d="M38.759 191.44c13.272-1.078 22.368-8.547 28.554-19.322 6.286-10.946 9.616-25.319 11.29-39.965l.003-.029c.878-7.715 1.395-15.765 1.921-23.936 2.598-40.379 5.407-83.953 51.275-102.49a78.198 78.198 0 0121.71-5.324c15.843-1.549 32.024 1.721 45.99 9.712 13.968 8 25.735 20.728 32.752 38.082 3.226 7.974 5.452 16.942 6.423 26.865l.003.178c-.14 24.363 3.757 58.561 14.34 83.645 7.617 18.048 18.685 31.334 34.157 32.587.633.049 1.11.607 1.06 1.24l-.061.294c-2.877 8.105-16.125 14.349-31.974 17.389 23.573 5.734 39.931 12.647 51.008 24.852 13.626 15.015 18.709 37.361 18.709 74.496 0 2.45-1.991 4.44-4.441 4.44H4.441A4.444 4.444 0 010 309.714c0-36.158 4.821-58.525 17.656-73.648 10.477-12.344 25.913-19.458 48.082-24.959-13.797-3.414-25.116-10.022-27.996-18.13a1.158 1.158 0 01.707-1.474l.31-.063zM293.451 77.158c36.946-45.655 79.532-70.487 111.509-29.873 38.527 2.025 53.972 63.233 23.25 89.003l-.179 1.523a17.001 17.001 0 013.562-.686c2.258-.175 4.432.194 6.286 1.182 2.025 1.082 3.58 2.837 4.379 5.319.767 2.376.793 5.413-.212 9.138l-4.804 13.635c-.779 2.209-1.491 3.766-3.042 4.999-1.593 1.266-3.531 1.737-6.521 1.58l-1.331-.145c-.314 15.166-7.721 22.161-17.421 31.274 7.709 25.735 28.356 29.742 48.636 33.659 27.505 5.315 54.437 31.292 54.437 60.72v12.001a3.676 3.676 0 01-3.673 3.671H341.419c.323-1.433.494-2.921.494-4.444 0-19.731-1.421-35.824-4.745-49.351-1.372-5.583-3.063-10.711-5.103-15.445 31.023 16.012 61.626 13.815 91.781-8.55-12.539-5.686-18.877-14.773-20.426-26.467-11.231 15.5-43.99 15.835-56.227 3.534-2.659 11.077-9.011 19.173-18.354 24.854a72.307 72.307 0 00-4.577-7.311c7.64-4.385 13.772-11.292 17.136-22.777l-.418-.369-3.647-3.185c-9.528-8.203-17.488-15.067-19.005-31.768l-.845.018c-1.953-.029-3.836-.471-5.606-1.476-7.91-4.505-8.863-16.265-8.639-24.442.168-6.103 1.519-13.205 9.621-12.969l-2.653-1.764c-1.438-17.982 2.773-49.18-16.755-55.088zm108.554 123.415c.168-.194.354-.375.561-.532l1.281-1.214c9.392-8.826 16.314-15.329 14.986-31.172a3.717 3.717 0 01.604-2.325 3.666 3.666 0 015.077-1.032c.66.436 1.323.782 1.965 1.017.54.201 1.072.32 1.572.346 1.043.055 1.517.055 1.587 0 .11-.087.348-.72.694-1.703l4.658-13.196c.831-3.132 1.343-6.642-2.851-6.32-2.034.157-4.396 1.13-6.509 2.711a3.665 3.665 0 01-5.878-3.498c3.452-20.148 1.871-33.282-2.418-42.232-3.761-7.844-9.758-12.601-16.265-16.152-14.431 11.06-24.599 12.324-34.734 13.574-8.384 1.034-16.756 2.072-27.831 9.735-5.274 3.647-8.782 8.066-10.572 13.201-1.816 5.208-1.923 11.308-.401 18.229a3.762 3.762 0 01-.142 2.035 3.666 3.666 0 01-4.69 2.197l-3.368-1.221c-4.324-1.511-7.39-2.212-8.578.503-.596 5.611-.541 18.519 4.739 21.527.631.357 1.334.52 2.078.529.895.011 1.897-.172 2.947-.48a3.66 3.66 0 014.887 3.36c.401 16.593 7.765 22.939 16.718 30.649l3.734 3.242c5.9 5.249 12.005 8.832 18.127 10.677 4.691.967 9.584 1.066 14.283.456a44.405 44.405 0 009.372-2.258c4.237-1.996 8.398-4.925 12.42-8.805l1.947-1.848zm-181.903 10.784a73.213 73.213 0 01-6.236-1.217c-6.248-1.52-11.749-3.848-15.881-7.088-6.289-4.926-9.424-11.88-7.32-21.196-18.857 11.769-38.652 11.719-57.393-.407l-1.185-.662c-.105 5.529-3.601 21.876-8.951 25.124-8.665 5.269-22.611 7.544-32.805 9.204-2.441.398-4.655.755-6.622 1.139a380.283 380.283 0 00-9.369 1.947c28.899 28.08 57.985 43.772 87.259 44.649 29.35.887 59.349-13.132 90.064-44.478a464.904 464.904 0 00-14.233-3.071l-.721-.146c-4.3-.852-10.356-2.06-16.607-3.798zm-21.914-46.323c20.065-22.193 25.415-37.159 22.756-67.07a135.193 135.193 0 00-2.115-14.564c-16.369-7.588-27.075-24.265-32.561-49.323-6.553 47.704-65.14 45.658-79.87 54.338 0 4.016-.099 7.809-.197 11.45-.666 24.561 1.153 37.614 13.515 57.224 2.069 3.283 4.086 6.454 6.524 9.084 19.685 21.224 53.341 18.565 71.948-1.139z"/></svg>